<svg width="15" height="15" viewBox="0 0 15 15" fill="none" xmlns="http://www.w3.org/2000/svg">
<path fill-rule="evenodd" clip-rule="evenodd" d="M4.83053 2.20407C5.10848 1.92612 5.55912 1.92612 5.83707 2.20407L5.39638 2.64476C5.83708 2.20407 5.83703 2.20402 5.83707 2.20407L5.88379 2.25091L6.01406 2.38206C6.1261 2.4951 6.28596 2.65696 6.47772 2.85271C6.86094 3.24392 7.37287 3.77183 7.88562 4.31663C8.39666 4.8596 8.91571 5.42696 9.30981 5.89495C9.50557 6.12742 9.6807 6.34736 9.81038 6.53378C9.87451 6.62597 9.93768 6.72436 9.98766 6.8212C10.0219 6.88752 10.1126 7.06602 10.1126 7.28279C10.1126 7.49957 10.0219 7.67807 9.98766 7.74439C9.93768 7.84123 9.87451 7.93962 9.81038 8.03181C9.6807 8.21823 9.50557 8.43817 9.30981 8.67064C8.91571 9.13863 8.39666 9.70599 7.88562 10.249C7.37287 10.7938 6.86094 11.3217 6.47772 11.7129C6.28596 11.9086 6.1261 12.0705 6.01406 12.1835L5.88379 12.3147L5.83794 12.3607L5.83715 12.3614C5.83711 12.3615 5.83707 12.3615 5.3338 11.8582L4.83054 11.355L4.87516 11.3102L5.00305 11.1815C5.11343 11.0701 5.27131 10.9102 5.46084 10.7168C5.8402 10.3295 6.34503 9.80888 6.84905 9.27337C7.35478 8.73603 7.8525 8.1913 8.22098 7.75373C8.37838 7.56681 8.50489 7.40804 8.59626 7.28279C8.50489 7.15755 8.37838 6.99878 8.22098 6.81186C7.8525 6.37429 7.35478 5.82957 6.84905 5.29222C6.34503 4.75671 5.8402 4.23608 5.46084 3.84883C5.27131 3.65535 5.11343 3.49549 5.00305 3.38412L4.87516 3.25537L4.83114 3.21123C4.55319 2.93328 4.55258 2.48202 4.83053 2.20407ZM8.72273 7.47406C8.73005 7.49238 8.73265 7.49329 8.72273 7.47406C8.72261 7.47382 8.72286 7.47432 8.72273 7.47406ZM4.83053 12.3615C4.55258 12.0836 4.55259 11.6329 4.83054 11.355L5.3338 11.8582L5.83715 12.3614C5.5592 12.6394 5.10848 12.6395 4.83053 12.3615Z" fill="#43B8F4"/>
</svg>
