<svg width="24" height="24" viewBox="0 0 24 24" fill="none" xmlns="http://www.w3.org/2000/svg">
<path fill-rule="evenodd" clip-rule="evenodd" d="M16.3319 3.02746C15.8409 2.53642 15.0447 2.53642 14.5537 3.02746L15.3322 3.80603C14.5537 3.02747 14.5538 3.02739 14.5537 3.02746L14.4711 3.11023L14.241 3.34192C14.0431 3.54162 13.7607 3.82756 13.4219 4.17339C12.7449 4.86453 11.8404 5.79717 10.9346 6.75965C10.0318 7.7189 9.11476 8.72124 8.41853 9.54802C8.07268 9.95872 7.76329 10.3473 7.53418 10.6766C7.42088 10.8395 7.30928 11.0133 7.22099 11.1844C7.16052 11.3016 7.00025 11.6169 7.00025 11.9999C7.00025 12.3829 7.16052 12.6982 7.22099 12.8154C7.30928 12.9864 7.42088 13.1603 7.53418 13.3231C7.76329 13.6525 8.07268 14.041 8.41853 14.4517C9.11476 15.2785 10.0318 16.2809 10.9346 17.2401C11.8404 18.2026 12.7449 19.1352 13.4219 19.8264C13.7607 20.1722 14.0431 20.4581 14.241 20.6579L14.4711 20.8895L14.5522 20.9708L14.5536 20.9722C14.5536 20.9722 14.5537 20.9723 15.4428 20.0832L16.3319 19.194L16.2531 19.115L16.0271 18.8875C15.8321 18.6908 15.5532 18.4084 15.2184 18.0666C14.5482 17.3824 13.6563 16.4626 12.7659 15.5166C11.8724 14.5673 10.9931 13.6049 10.3421 12.8319C10.064 12.5016 9.84054 12.2211 9.67912 11.9999C9.84054 11.7786 10.064 11.4981 10.3421 11.1679C10.9931 10.3949 11.8724 9.43251 12.7659 8.48321C13.6563 7.53713 14.5482 6.61735 15.2184 5.9332C15.5532 5.59139 15.8321 5.30898 16.0271 5.11223L16.2531 4.88476L16.3308 4.80679C16.8219 4.31574 16.823 3.51851 16.3319 3.02746ZM9.45569 12.3378C9.44277 12.3701 9.43817 12.3717 9.45569 12.3378C9.45592 12.3374 9.45546 12.3382 9.45569 12.3378ZM16.3319 20.9723C16.823 20.4813 16.8229 19.6851 16.3319 19.194L15.4428 20.0832L14.5536 20.9722C15.0446 21.4632 15.8409 21.4633 16.3319 20.9723Z" fill="#43B8F4"/>
</svg>
