<svg width="13" height="12" viewBox="0 0 13 12" fill="none" xmlns="http://www.w3.org/2000/svg">
<path d="M5.98226 1.23451C6.30269 0.974365 6.76158 0.974365 7.08201 1.23451L8.02073 1.99663C8.15224 2.1034 8.312 2.16958 8.4805 2.18707L9.68317 2.31195C10.0937 2.35458 10.4182 2.67906 10.4608 3.08959L10.5857 4.29226C10.6032 4.46076 10.6694 4.62052 10.7761 4.75204L11.5382 5.69075C11.7984 6.01118 11.7984 6.47007 11.5382 6.7905L10.7761 7.72922C10.6694 7.86074 10.6032 8.0205 10.5857 8.189L10.4608 9.39167C10.4182 9.8022 10.0937 10.1267 9.68317 10.1693L8.4805 10.2942C8.312 10.3117 8.15224 10.3779 8.02073 10.4846L7.08201 11.2467C6.76158 11.5069 6.30269 11.5069 5.98226 11.2467L5.04354 10.4846C4.91202 10.3779 4.75226 10.3117 4.58376 10.2942L3.38109 10.1693C2.97056 10.1267 2.64608 9.8022 2.60345 9.39167L2.47858 8.189C2.46108 8.0205 2.39491 7.86074 2.28813 7.72922L1.52602 6.7905C1.26587 6.47007 1.26587 6.01118 1.52602 5.69075L2.28813 4.75204C2.39491 4.62052 2.46108 4.46076 2.47858 4.29226L2.60345 3.08959C2.64608 2.67906 2.97056 2.35458 3.38109 2.31195L4.58376 2.18707C4.75226 2.16958 4.91202 2.1034 5.04354 1.99663L5.98226 1.23451Z" stroke="#222222" stroke-width="0.763356"/>
<path d="M4.89648 6.51313C4.89648 6.51313 5.8362 7.60363 5.98699 7.60363C6.13779 7.60363 8.16801 4.60474 8.16801 4.60474" stroke="#222222" stroke-width="0.763356" stroke-linecap="round"/>
</svg>
