<svg width="32" height="32" viewBox="0 0 32 32" fill="none" xmlns="http://www.w3.org/2000/svg">
<path fill-rule="evenodd" clip-rule="evenodd" d="M0 16V22C0 27.5228 4.47715 32 10 32H16H22C27.5228 32 32 27.5228 32 22V16V10C32 4.47715 27.5228 0 22 0H16H10C4.47715 0 0 4.47715 0 10V16ZM17.1728 1.72886C19.2897 1.99965 21.042 2.80909 22.5929 4.23254L22.8528 4.47112C22.9419 4.5529 23.0635 4.58962 23.1829 4.57088C23.7808 4.47712 24.6598 3.88595 25.1542 3.24518C25.2284 3.14902 25.295 3.07635 25.3023 3.08368C25.3224 3.10374 25.1121 3.6335 24.9764 3.90486C24.7874 4.28256 24.4674 4.79984 24.17 5.2081C22.7355 7.17786 20.154 9.36099 17.9589 10.4608L17.7877 10.5466C17.6904 10.5953 17.5742 10.5873 17.4845 10.5256C17.2705 10.3783 16.8405 10.1849 16.5885 10.1227C16.2831 10.0471 15.671 10.0482 15.3921 10.1248C15.091 10.2074 14.8311 10.3233 14.576 10.4885C14.4375 10.5782 14.2615 10.5867 14.115 10.5109L14.0491 10.4768C13.0896 9.98013 11.948 9.22614 11.008 8.46813C9.9185 7.58957 8.72067 6.3904 8.02704 5.48374C7.41885 4.6888 6.92806 3.83488 6.71949 3.20864L6.70269 3.15817C6.69417 3.13259 6.72789 3.11464 6.74435 3.136C6.91968 3.36339 7.38323 3.81955 7.62358 4.00125C8.06426 4.33437 8.46454 4.52461 8.83117 4.5751C8.94198 4.59037 9.05378 4.55494 9.13557 4.47863L9.34317 4.28493C10.4681 3.23526 11.8107 2.45946 13.1899 2.06224C13.8601 1.86918 14.738 1.71562 15.536 1.65184C15.8427 1.62736 16.6914 1.66726 17.1728 1.72886ZM7.87264 7.312C8.18973 7.73395 8.49171 8.09834 8.87638 8.52298L8.99249 8.65114C9.09513 8.76444 9.12034 8.92803 9.05658 9.06698C8.88573 9.43923 8.73338 9.85344 8.67862 10.0945C8.60045 10.4387 8.61078 11.1429 8.69885 11.472C8.96122 12.4524 9.76019 13.2624 10.8081 13.6105C11.2308 13.751 11.6346 13.824 11.9882 13.824C12.2934 13.824 12.2776 13.8022 12.2212 14.144C12.2024 14.2584 12.1773 14.5597 12.1655 14.8136C12.1521 15.1012 11.9931 15.3622 11.7437 15.5061L10.5865 16.1736C9.72995 16.6677 9.03875 17.0813 9.05053 17.0928C9.06234 17.1042 9.6192 17.4193 10.288 17.7931C10.9568 18.1668 11.5994 18.5354 11.7161 18.6121C12.2331 18.9524 12.8379 19.7451 13.3508 20.7549C13.9968 22.0263 14.5116 23.4392 15.2679 26.016C15.978 28.4351 15.9815 28.4466 16.0124 28.4133C16.0192 28.406 16.1573 27.9464 16.3192 27.392C17.343 23.8873 17.7222 22.756 18.3248 21.4083C18.8906 20.143 19.5571 19.1451 20.1163 18.726C20.2905 18.5955 21.7453 17.7581 22.7755 17.1955C22.8676 17.1452 22.9395 17.0927 22.9351 17.0788C22.9308 17.065 22.2362 16.6546 21.3916 16.1668L20.2167 15.4883C19.9917 15.3583 19.8475 15.1235 19.8335 14.864C19.8211 14.6352 19.7959 14.3341 19.7775 14.1949C19.7244 13.7939 19.707 13.824 19.992 13.8239C20.5356 13.8236 21.1472 13.6701 21.6693 13.403C22.6386 12.9072 23.2436 12.0703 23.3627 11.061C23.4353 10.4452 23.29 9.77488 22.9283 9.05651C22.8646 8.93005 22.8853 8.77743 22.9804 8.67254L23.1411 8.49533C23.4862 8.11469 23.9445 7.55565 24.2376 7.15766C24.339 7.01997 24.4265 6.91197 24.432 6.91766C24.4375 6.92336 24.5378 7.11898 24.6548 7.35235C25.1601 8.36032 25.4566 9.28013 25.6373 10.4C25.6967 10.7681 25.7039 11.0219 25.7281 13.584C25.7426 15.1152 25.7702 16.5768 25.7896 16.832C26.0095 19.7319 26.6436 22.1982 27.7636 24.509C27.9292 24.8506 28.0609 25.1331 28.0563 25.1368C28.0517 25.1405 27.3089 24.5465 26.4056 23.8168C25.5023 23.0871 24.7593 22.495 24.7545 22.501C24.7497 22.5071 24.2233 23.3616 23.5846 24.4C22.946 25.4384 22.4205 26.2917 22.4169 26.2962C22.4133 26.3007 21.8602 25.7859 21.1877 25.1522C20.5153 24.5185 19.955 24.0007 19.9426 24.0015C19.9302 24.0024 19.0416 25.4345 17.968 27.184C16.8944 28.9335 16.0088 30.3654 16 30.3661C15.9912 30.3667 15.1036 28.9382 14.0277 27.1916C12.9517 25.445 12.0574 24.016 12.0404 24.016C12.0233 24.016 11.5356 24.4621 10.9566 25.0074C10.3777 25.5526 9.83091 26.0671 9.74154 26.1508C9.65759 26.2293 9.52272 26.2113 9.46241 26.1134L8.41517 24.4133C7.77501 23.3741 7.24314 22.5189 7.23322 22.5128C7.2233 22.5066 6.48502 23.0908 5.59261 23.8108C4.70019 24.5308 3.96342 25.12 3.95539 25.12C3.94733 25.12 4.05331 24.886 4.19091 24.6C5.3704 22.1483 6.01818 19.6076 6.20806 16.688C6.22637 16.4064 6.24883 15.06 6.25792 13.696C6.26704 12.332 6.2895 11.0504 6.30787 10.848C6.39568 9.87946 6.64246 8.9247 7.05693 7.94998C7.25507 7.48394 7.55718 6.90381 7.58547 6.93501C7.59795 6.94874 7.72717 7.1184 7.87264 7.312ZM11.616 10.791C12.1526 11.1396 12.6 11.4037 13.08 11.6553C13.3132 11.7775 13.504 11.8832 13.504 11.8902C13.504 11.9227 13.1599 12.0717 12.9058 12.1493C12.6575 12.2252 12.5688 12.2356 12.16 12.2375C11.6311 12.24 11.426 12.1988 11.0479 12.0139C10.5878 11.7889 10.28 11.4025 10.2029 10.9529C10.1706 10.7645 10.1725 10.6864 10.2147 10.4725C10.2423 10.332 10.2947 10.1499 10.331 10.0677C10.3649 9.99121 10.461 9.96594 10.5281 10.0159L10.8226 10.2351C11.0565 10.4094 11.4136 10.6595 11.616 10.791ZM21.713 10.2173C21.8096 10.523 21.8242 10.8995 21.7488 11.1446C21.6056 11.6106 21.1283 12.0136 20.528 12.1753C20.0789 12.2963 19.4436 12.271 18.9811 12.1137C18.7722 12.0427 18.496 11.9154 18.496 11.8901C18.496 11.8832 18.6796 11.7806 18.904 11.6622C19.6721 11.2568 20.696 10.6068 21.3137 10.1324C21.4618 10.0186 21.5936 9.93203 21.6065 9.94003C21.6195 9.94803 21.6674 10.0728 21.713 10.2173ZM16.4362 11.6748C16.8413 11.8148 17.3632 12.2567 17.6499 12.7023C18.0712 13.357 18.2332 14.0399 18.2628 15.2854C18.279 15.9631 18.2863 16.0371 18.3483 16.146C18.4054 16.2466 18.5219 16.3256 19.0947 16.6526C19.468 16.8657 19.7733 17.0472 19.7732 17.056C19.7731 17.0648 19.6062 17.18 19.4024 17.312C18.9884 17.5801 18.4511 18.0686 18.1225 18.4756C17.4012 19.3689 16.8925 20.4554 16.2698 22.432C16.134 22.8632 16.0119 23.2282 15.9987 23.2432C15.9853 23.2581 15.964 23.2221 15.9513 23.1632C15.9095 22.9704 15.3091 21.1774 15.1546 20.784C14.7974 19.8747 14.2946 18.9834 13.8128 18.4058C13.4251 17.9409 12.8913 17.4773 12.4075 17.1852C12.3066 17.1243 12.2241 17.0667 12.2243 17.0572C12.2244 17.0477 12.5138 16.8747 12.8674 16.6726C13.5332 16.2922 13.681 16.1728 13.7092 15.9927C13.7183 15.9351 13.7319 15.564 13.7396 15.168C13.7548 14.375 13.7998 14.0394 13.9582 13.536C14.0679 13.1874 14.2809 12.7654 14.4726 12.5168C14.7714 12.1295 15.2402 11.7731 15.5983 11.6609C15.7932 11.5999 16.2408 11.6073 16.4362 11.6748Z" fill="white"/>
</svg>
