<svg width="32" height="28" viewBox="0 0 32 28" fill="none" xmlns="http://www.w3.org/2000/svg">
<path d="M31.7383 1.28499C31.6025 1.12792 31.433 1.00292 31.2423 0.919116C31.0516 0.835311 30.8444 0.794811 30.6359 0.800591C29.9309 0.78607 29.1715 1.0682 28.9205 1.16362C28.5314 1.29743 27.9332 1.50591 27.2052 1.77041C25.9291 2.23301 24.9868 2.60021 24.6332 2.7392C23.6103 3.1375 21.9891 3.76087 19.4098 4.72653L13.0223 7.39328C13.0223 7.39328 7.91711 9.52791 3.77417 11.2653C3.49281 11.369 1.91659 11.9416 0.86647 12.5535C0.552501 12.7146 0.296677 12.9682 0.134316 13.2796C0.0195549 13.5035 -0.023159 13.7569 0.0119423 14.0057C0.116536 14.6581 0.80999 14.9506 0.869608 14.9745L6.1704 16.5863C6.92929 16.8088 7.72836 16.8624 8.51053 16.7431C9.29269 16.6239 10.0387 16.3348 10.6951 15.8966L21.9065 8.38384L23.4095 7.37668C23.9136 7.03854 24.4743 7.71793 24.0371 8.13905L22.6501 9.47917L14.4155 17.44C14.2254 17.6241 14.0794 17.8481 13.9881 18.0955C13.8968 18.343 13.8626 18.6076 13.888 18.8699C13.9134 19.1321 13.9977 19.3854 14.1348 19.6111C14.2719 19.8369 14.4582 20.0292 14.6801 20.1741L22.0843 25.0045L24.8351 26.801C25.1746 27.023 25.5647 27.1572 25.9698 27.1913C26.375 27.2255 26.7823 27.1586 27.1547 26.9968C27.5272 26.8349 27.8528 26.5832 28.102 26.2646C28.3513 25.9459 28.5161 25.5706 28.5816 25.1726L29.4006 20.1306L29.4968 19.5383C29.7437 18.1339 29.9828 16.708 30.2143 15.2607C30.5281 13.3024 31.959 3.36568 31.9851 2.86054C32.0343 1.89902 31.9642 1.55052 31.7383 1.28499Z" fill="white"/>
</svg>
